<svg preserveAspectRatio="none" overflow="visible" style="display: block;" width="13.5" height="15" viewBox="0 0 13.5 15" fill="none" xmlns="http://www.w3.org/2000/svg">
<g id="Container">
<path id="Icon" d="M8.625 12C8.1 12 7.65625 11.8188 7.29375 11.4563C6.93125 11.0938 6.75 10.65 6.75 10.125C6.75 9.6 6.93125 9.15625 7.29375 8.79375C7.65625 8.43125 8.1 8.25 8.625 8.25C9.15 8.25 9.59375 8.43125 9.95625 8.79375C10.3188 9.15625 10.5 9.6 10.5 10.125C10.5 10.65 10.3188 11.0938 9.95625 11.4563C9.59375 11.8188 9.15 12 8.625 12V12M1.5 15C1.0875 15 0.734375 14.8531 0.440625 14.5594C0.146875 14.2656 0 13.9125 0 13.5V3C0 2.5875 0.146875 2.23437 0.440625 1.94062C0.734375 1.64687 1.0875 1.5 1.5 1.5H2.25V0H3.75V1.5H9.75V0H11.25V1.5H12C12.4125 1.5 12.7656 1.64687 13.0594 1.94062C13.3531 2.23437 13.5 2.5875 13.5 3V13.5C13.5 13.9125 13.3531 14.2656 13.0594 14.5594C12.7656 14.8531 12.4125 15 12 15H1.5V15M1.5 13.5H12V13.5V13.5V6H1.5V13.5V13.5V13.5V13.5M1.5 4.5H12V3V3V3H1.5V3V3V4.5V4.5M1.5 4.5V3V3V3V3V3V3V4.5V4.5V4.5" fill="#FFB3AC"/>
</g>
</svg>
