<svg preserveAspectRatio="none" overflow="visible" style="display: block;" width="9.16667" height="7.33333" viewBox="0 0 9.16667 7.33333" fill="none" xmlns="http://www.w3.org/2000/svg">
<g id="Container">
<path id="Icon" d="M4.58333 5.95833C4.71319 5.95833 4.82205 5.91441 4.9099 5.82656C4.99774 5.73872 5.04167 5.62986 5.04167 5.5C5.04167 5.37014 4.99774 5.26128 4.9099 5.17344C4.82205 5.08559 4.71319 5.04167 4.58333 5.04167C4.45347 5.04167 4.34462 5.08559 4.25677 5.17344C4.16892 5.26128 4.125 5.37014 4.125 5.5C4.125 5.62986 4.16892 5.73872 4.25677 5.82656C4.34462 5.91441 4.45347 5.95833 4.58333 5.95833V5.95833M4.58333 4.125C4.71319 4.125 4.82205 4.08108 4.9099 3.99323C4.99774 3.90538 5.04167 3.79653 5.04167 3.66667C5.04167 3.53681 4.99774 3.42795 4.9099 3.3401C4.82205 3.25226 4.71319 3.20833 4.58333 3.20833C4.45347 3.20833 4.34462 3.25226 4.25677 3.3401C4.16892 3.42795 4.125 3.53681 4.125 3.66667C4.125 3.79653 4.16892 3.90538 4.25677 3.99323C4.34462 4.08108 4.45347 4.125 4.58333 4.125V4.125M4.58333 2.29167C4.71319 2.29167 4.82205 2.24774 4.9099 2.1599C4.99774 2.07205 5.04167 1.96319 5.04167 1.83333C5.04167 1.70347 4.99774 1.59462 4.9099 1.50677C4.82205 1.41892 4.71319 1.375 4.58333 1.375C4.45347 1.375 4.34462 1.41892 4.25677 1.50677C4.16892 1.59462 4.125 1.70347 4.125 1.83333C4.125 1.96319 4.16892 2.07205 4.25677 2.1599C4.34462 2.24774 4.45347 2.29167 4.58333 2.29167V2.29167M8.25 7.33333H0.916667C0.664583 7.33333 0.448785 7.24358 0.269271 7.06406C0.089757 6.88455 0 6.66875 0 6.41667V4.58333C0.252083 4.58333 0.467882 4.49358 0.647396 4.31406C0.82691 4.13455 0.916667 3.91875 0.916667 3.66667C0.916667 3.41458 0.82691 3.19878 0.647396 3.01927C0.467882 2.83976 0.252083 2.75 0 2.75V0.916667C0 0.664583 0.089757 0.448785 0.269271 0.269271C0.448785 0.089757 0.664583 0 0.916667 0H8.25C8.50208 0 8.71788 0.089757 8.8974 0.269271C9.07691 0.448785 9.16667 0.664583 9.16667 0.916667V2.75C8.91458 2.75 8.69878 2.83976 8.51927 3.01927C8.33976 3.19878 8.25 3.41458 8.25 3.66667C8.25 3.91875 8.33976 4.13455 8.51927 4.31406C8.69878 4.49358 8.91458 4.58333 9.16667 4.58333V6.41667C9.16667 6.66875 9.07691 6.88455 8.8974 7.06406C8.71788 7.24358 8.50208 7.33333 8.25 7.33333V7.33333" fill="#FFB3AD"/>
</g>
</svg>
